<svg width="54" height="51" viewBox="0 0 54 51" fill="none" xmlns="http://www.w3.org/2000/svg">
<path d="M37.6743 14.0979C40.5134 11.2914 47.0729 8.77206 50.5974 21.1469C48.9983 20.69 44.7428 19.9134 40.5134 20.4616C45.0496 23.2681 53.9065 29.2533 53.0449 30.7414C51.4132 29.8602 46.9946 28.4505 42.3736 29.8602C41.6883 29.9908 40.905 30.7805 43.2547 32.8952C46.1918 35.5386 49.9121 39.4547 44.8211 42.5876M44.8211 42.5876C45.2911 40.4729 38.6207 31.2635 35.2267 26.9232M44.8211 42.5876C30.2533 56.0589 15.0587 48.1354 9.28245 42.4897M16.4294 14.0466C13.5902 11.2446 7.03068 8.72941 3.50615 21.0841C5.10524 20.6279 9.36078 19.8525 13.5902 20.3999C9.05401 23.2018 0.197018 29.1771 1.05857 30.6628C2.69029 29.7831 7.109 28.3756 11.73 29.7831C12.4154 29.9135 13.1986 30.7019 10.8489 32.8132C7.91181 35.4522 4.19148 39.3619 9.28245 42.4897M9.28245 42.4897C8.81252 40.3784 15.483 31.1841 18.877 26.8509" stroke="#59120C"/>
<circle cx="27.1008" cy="16.4476" r="10.4651" stroke="#59120C"/>
<path d="M34.8357 1.60963C34.8357 1.60963 34.8354 1.61016 34.8347 1.61124L34.8357 1.60963ZM34.4625 1.46753C34.6232 1.54439 34.7251 1.61245 34.7843 1.66434C34.7251 1.71624 34.6232 1.78429 34.4625 1.86115C34.1004 2.03444 33.5442 2.20391 32.8167 2.35114C31.37 2.64394 29.3488 2.82868 27.1008 2.82868C24.8528 2.82868 22.8316 2.64394 21.3849 2.35114C20.6574 2.20391 20.1012 2.03444 19.7391 1.86115C19.5784 1.78429 19.4765 1.71624 19.4173 1.66434C19.4765 1.61245 19.5784 1.54439 19.7391 1.46753C20.1012 1.29424 20.6574 1.12477 21.3849 0.977539C22.8316 0.684741 24.8528 0.5 27.1008 0.5C29.3488 0.5 31.37 0.684741 32.8167 0.977539C33.5442 1.12477 34.1004 1.29424 34.4625 1.46753ZM19.3659 1.60963C19.366 1.60963 19.3663 1.61017 19.3669 1.61124L19.3659 1.60963ZM19.3659 1.71906C19.3659 1.71906 19.3662 1.71852 19.3669 1.71744L19.3659 1.71906ZM34.8347 1.71744C34.8354 1.71852 34.8357 1.71906 34.8357 1.71906L34.8347 1.71744Z" stroke="#EA8B4B"/>
</svg>
