<svg width="346" height="130" viewBox="0 0 346 130" fill="none" xmlns="http://www.w3.org/2000/svg">
<path d="M66.812 42.7598C71.9069 37.7234 83.6778 33.2025 90.0025 55.4092C87.133 54.5893 79.4965 53.1955 71.9069 54.1794C80.047 59.2157 95.9407 69.956 94.3947 72.6264C91.4666 71.0452 83.5373 68.5153 75.2449 71.0452C74.0151 71.2795 72.6096 72.6967 76.8261 76.4915C82.0967 81.235 88.7727 88.2625 79.6371 93.8844M79.6371 93.8844C80.4804 90.0896 68.5103 73.5634 62.4198 65.7746M79.6371 93.8844C53.495 118.059 26.2284 103.84 15.8629 93.7087M28.6881 42.6676C23.5931 37.6395 11.8221 33.1259 5.49729 55.2964C8.36686 54.4778 16.0034 53.0863 23.5931 54.0686C15.4529 59.0967 -0.440951 69.8194 1.1051 72.4854C4.03323 70.9069 11.9626 68.3811 20.2551 70.9069C21.4849 71.1407 22.8904 72.5556 18.6739 76.3442C13.4032 81.08 6.7271 88.096 15.8629 93.7087M15.8629 93.7087C15.0196 89.9201 26.9898 73.4209 33.0803 65.6449" stroke="#59120C" stroke-width="2"/>
<circle cx="47.8378" cy="46.9763" r="18.6768" stroke="#59120C" stroke-width="2"/>
<path d="M62.0955 20.4477C62.0955 20.4742 62.0844 20.5553 61.9441 20.6941C61.8027 20.8339 61.5676 20.9929 61.22 21.1592C60.5272 21.4907 59.4926 21.8026 58.1739 22.0695C55.5448 22.6016 51.8902 22.9343 47.8379 22.9343C43.7856 22.9343 40.131 22.6016 37.5018 22.0695C36.1832 21.8026 35.1486 21.4907 34.4558 21.1592C34.1082 20.9929 33.8731 20.8339 33.7317 20.6941C33.5913 20.5553 33.5803 20.4742 33.5803 20.4477C33.5803 20.4211 33.5913 20.34 33.7317 20.2012C33.8731 20.0614 34.1082 19.9025 34.4558 19.7361C35.1486 19.4047 36.1832 19.0927 37.5018 18.8258C40.131 18.2937 43.7856 17.961 47.8379 17.961C51.8902 17.961 55.5448 18.2937 58.1739 18.8258C59.4926 19.0927 60.5272 19.4047 61.22 19.7361C61.5676 19.9025 61.8027 20.0614 61.9441 20.2012C62.0844 20.34 62.0955 20.4211 62.0955 20.4477Z" stroke="#EA8B4B"/>
<path fill-rule="evenodd" clip-rule="evenodd" d="M171.474 20.4477C171.015 19.2223 169.131 16.9095 165.271 17.4609C160.446 18.1502 156.081 19.7584 151.716 27.7996C147.351 35.8409 146.432 46.6392 153.324 52.3829C154.473 53.0722 157.368 53.4398 163.433 45.7202C164.888 48.2474 168.125 53.1854 169.407 53.3019C171.934 53.5317 179.516 46.1797 181.124 43.4227C181.403 44.2607 181.576 45.1624 181.753 46.0827C182.158 48.1899 182.581 50.3941 184.34 52.1532C186.027 52.1532 187.103 50.012 188.689 46.8526C189.047 46.1398 189.431 45.3751 189.854 44.5714C193.301 39.2106 200.653 28.5808 202.491 28.9484C203.55 29.1603 202.445 31.3137 201.158 33.82C200.212 35.6619 199.169 37.6945 198.815 39.2872C197.896 43.4227 198.585 47.0987 202.261 51.4639C203.256 52.4595 205.799 53.8993 208.005 51.6937C210.21 49.4881 215.969 44.0353 218.573 41.5847C218.497 43.5758 218.941 48.0177 221.33 49.8557C221.75 50.1784 222.146 50.5164 222.532 50.846C224.895 52.8631 226.892 54.5674 231.669 50.5449C236.034 46.8689 240.399 42.2739 240.399 42.2739C240.323 42.6568 240.445 43.7903 241.548 45.2607C242.651 46.7311 246.909 51.3873 248.9 53.5317C249.589 53.5317 251.657 53.1181 254.414 51.4639C256.586 50.161 262.416 46.967 266.74 44.6215C268.777 43.5163 270.698 42.2079 272.378 40.6105C277.036 36.1805 283.672 28.8023 281.525 23.4344C281.065 22.2858 279.631 24.5531 277.135 27.7696C273.614 32.3087 268.765 38.5587 265.672 38.8277C267.204 35.0751 269.67 26.6509 267.28 22.9749C264.891 19.2989 259.698 17.2311 259.698 17.2311C256.788 17.0014 250.738 19.5286 243.386 30.5566C238.796 37.4421 229.831 44.3417 225.695 43.6524C227.916 37.296 233.277 24.5831 235.804 24.5831L242.008 24.1236C243.156 23.1281 244.994 18.6096 242.467 18.6096H238.102L240.399 14.4741C240.17 13.5551 238.791 11.4875 235.115 10.5684C234.477 10.4088 233.342 12.0587 231.986 14.0294C230.902 15.6047 229.677 17.3849 228.452 18.6096L221.33 18.6096C220.564 19.0692 219.492 20.5397 221.33 22.7453C223.168 23.2048 226.063 24.9049 222.938 28.0295C222.058 28.9099 220.722 30.354 219.181 32.02C213.886 37.7447 206.167 46.09 206.167 43.193C206.167 40.6658 211.834 28.8719 216.505 22.056C216.276 20.4478 214.805 17.4151 210.762 18.1503C206.718 18.8855 200.653 24.4301 198.125 27.1105C197.589 26.1149 198.355 24.1238 199.504 21.5965C200.478 19.4525 198.295 18.5838 195.785 18.4808C194.218 18.4165 192.864 19.4157 192.069 20.7678C187.086 29.2436 177.405 42.9784 170.326 43.6525C167.827 43.8904 170.898 39.2511 174.443 33.8969C177.417 29.4037 180.725 24.4069 181.354 21.3668C180.741 20.3712 178.964 18.2882 176.759 17.9205C175.462 17.7044 175.08 18.2504 174.633 18.8896C174.13 19.6096 173.543 20.4477 171.474 20.4477ZM169.346 24.8781C169.685 23.8515 168.773 23.0637 167.755 23.4274C162.816 25.192 155.192 31.8284 153.094 42.9633C152.037 48.5744 166.991 32.0036 169.346 24.8781ZM262.641 22.8917C262.599 22.1695 261.798 21.8529 261.31 22.3876C259.613 24.25 257.756 28.0054 259.239 34.2328C259.641 35.9194 262.981 28.707 262.641 22.8917ZM253.495 44.8013C256.124 43.3224 255.032 36.3472 253.895 31.9848C253.673 31.1313 252.849 30.651 252.272 31.3183C249.512 34.5122 246.524 46.6695 247.522 46.869C248.67 47.0988 249.819 46.869 253.495 44.8013Z" fill="#59120C"/>
<path d="M148.04 21.5709C142.067 25.732 139.818 24.2029 136.782 23.2048C137.625 22.056 140.091 18.7936 143.215 14.9338C146.34 11.074 146.355 6.58617 145.972 4.82475C145.513 4.74817 143.445 5.514 138.85 9.19001C133.106 13.785 129.43 20.9073 130.349 25.0428C131.268 29.1783 136.093 28.7188 140.688 35.841C145.283 42.9633 141.148 47.0988 135.863 51.0045C130.579 54.9103 121.389 52.383 117.483 50.7748C114.359 49.4882 113.271 44.7247 113.118 42.5038C116.059 44.8932 123.227 45.031 126.443 44.8013C140.229 42.4119 133.259 34.6157 128.052 31.0163C124.008 28.2593 122.691 23.5706 122.538 21.5709C122.538 13.2539 128.879 6.89798 134.631 3.11905C138.277 0.724301 142.872 -0.290584 146.905 1.37239C150.452 2.8355 152.428 5.10061 153.095 6.433C153.262 14.5793 151.038 19.1665 148.04 21.5709Z" fill="#59120C"/>
<path fill-rule="evenodd" clip-rule="evenodd" d="M156.355 104.148C159.801 98.7876 167.153 88.1578 168.991 88.5254C170.051 88.7373 168.945 90.8907 167.659 93.397C166.713 95.239 165.669 97.2716 165.315 98.8642C164.396 103 165.086 106.676 168.762 111.041C169.757 112.037 172.3 113.476 174.505 111.271C175.64 110.137 177.713 108.144 179.814 106.142C182.571 103.346 185.283 101.508 185.558 102.887C187.235 111.273 188.814 111.272 190.989 111.271L191.072 111.271C192.91 111.271 196.357 109.012 197.965 107.482C199.573 105.952 198.424 109.32 198.424 109.32C198.195 110.928 196.219 115.293 190.153 119.888C184.088 124.483 189.311 128.389 192.681 129.768C193.599 130.074 195.575 130.319 196.127 128.849C196.237 128.555 196.347 128.143 196.486 127.626C197.213 124.911 198.718 119.291 205.087 112.536C206.312 111.311 209.682 108.585 210.371 108.171C210.994 107.797 215.181 104.285 217.508 102.142C217.945 101.739 218.551 101.445 219.071 101.733C219.77 102.121 220.47 103.085 221.17 105.184C222.165 108.171 225.535 113.777 231.049 112.307C236.563 110.836 244.068 104.265 246.902 101.278C250.118 111.158 254.284 114.965 261.606 109.779C263.26 108.608 264.776 107.084 266.148 105.706C269.35 102.489 271.768 100.061 273.323 104.725C275.712 111.893 279.373 112.613 280.905 112.077C284.273 111.515 286.012 108.847 287.223 106.99C287.993 105.807 288.55 104.954 289.176 105.184C290.83 105.794 291.461 107.577 292.052 109.249C292.774 111.291 293.438 113.168 295.838 112.536C298.991 111.706 301.904 108.36 304.145 105.786C305.007 104.796 305.769 103.92 306.407 103.346L307.096 102.657L308.245 101.233C310.17 98.4909 314.68 92.4505 317.478 88.7358C317.676 88.4727 318.074 88.4989 318.22 88.7943C319.617 91.6282 321.132 97.4263 317.894 102.197C314.635 107.001 309.742 104.834 307.785 102.427C308.786 106.568 311.697 114.201 317.894 112.077C324.327 109.871 329.305 106.563 330.99 105.184C333.747 103.346 340.869 91.6289 344.775 85.1959C346.154 83.3579 343.827 80.6009 342.248 83.1282C336.346 92.5715 331.153 97.4508 328.798 99.079C328.532 99.2632 328.181 99.0913 328.138 98.7703C327.996 97.7059 327.929 96.8789 327.87 96.147C327.708 94.1397 327.604 92.847 326.165 89.3314C326.028 88.9963 325.893 88.6819 325.765 88.3835C324.628 85.743 324.035 84.3632 327.544 81.0604C331.45 77.3844 327.084 73.7084 325.017 73.2489C322.949 72.7894 318.286 77.494 317.205 80.6009C315.367 85.8852 310.236 91.246 306.407 95.0752C303.19 98.6746 296.711 105.046 296.528 101.738C296.408 99.5847 298.967 95.3137 301.415 91.2276C303.668 87.466 305.828 83.861 305.718 82.2092C305.534 79.4522 302.118 78.7629 300.433 78.7629C286.789 98.9414 283.003 102.831 280.741 103.474C280.151 103.641 279.74 102.988 279.955 102.414C283.995 91.5983 287.25 86.5851 288.978 83.9249C290.194 82.0515 290.653 81.3451 290.095 80.6009C286.537 75.8576 284.121 77.8439 275.85 88.8719C267.477 100.036 256.934 103.576 253.105 104.265C252.416 102.887 254.13 95.3731 256.781 94.6157C259.997 93.6967 262.754 92.114 263.673 91.3992C267.809 88.1825 274.472 82.4389 277.229 73.4787C279.986 64.5184 274.242 59.9234 270.336 60.1532C266.43 60.3829 256.781 70.7217 252.416 82.4389C248.923 91.8127 246.365 95.0753 245.523 95.5348C242.077 99.2874 232.427 106.563 226.224 103.806C223.992 102.814 225.535 99.2108 226.913 97.1431C228.675 98.7513 233.254 100.819 237.482 96.2241C238 95.6611 238.517 95.1114 239.025 94.5719C243.699 89.607 247.558 85.507 243.455 79.9118C238.655 73.3665 231.577 78.0457 229.105 79.6796L229.104 79.6801C228.973 79.7666 228.855 79.8445 228.751 79.9118C225.579 81.9648 223.922 84.8894 222.042 88.2086C219.293 93.0615 216.066 98.7577 206.925 103.806C209.605 98.2153 215.518 86.3448 217.723 83.5878C220.119 80.5936 215.577 79.6806 213.892 79.3419C213.638 79.2908 213.448 79.2527 213.358 79.2226C212.807 79.0388 211.597 79.9118 211.061 80.3713C208.533 77.6143 205.235 76.9251 203.709 76.9251C201.641 76.9251 194.448 78.0738 189.923 85.4258C186.247 91.3993 183.49 94.5152 180.963 97.1431C176.803 101.469 172.667 104.831 172.667 102.77C172.667 100.243 178.335 88.449 183.006 81.6331C182.776 80.0248 181.306 76.9921 177.262 77.7273C173.219 78.4625 167.153 84.0071 164.626 86.6876C164.09 85.692 164.856 83.7008 166.005 81.1736C167.151 78.6508 163.926 77.8937 160.94 78.0721C160.22 78.1151 159.593 78.5553 159.272 79.2005C158.261 81.23 157.194 83.8884 156.056 86.7227C154.222 91.2902 152.204 96.3146 149.947 99.9001L148.661 102.343C148.392 102.854 148.217 103.411 148.19 103.988C148.166 104.518 148.163 105.183 148.254 105.66C148.659 107.767 149.082 109.971 150.841 111.73C152.528 111.73 153.604 109.589 155.19 106.43L155.19 106.429C155.548 105.716 155.932 104.952 156.355 104.148ZM208.559 84.0165C208.875 83.3195 208.29 82.5958 207.552 82.7981C202.04 84.3094 193.268 89.6749 190.72 100.952C190.375 102.48 191.954 103.574 193.261 102.712C201.055 97.5753 206.315 88.9688 208.559 84.0165ZM238.851 83.7889C239.164 83.1657 238.601 82.6226 237.953 82.882C234.759 84.1615 229.807 87.706 228.062 94.8454C227.66 96.4922 236.646 88.1804 238.851 83.7889ZM269.971 72.5054C270.306 71.6837 269.614 71.1812 268.988 71.8102C266.176 74.6353 261.236 80.8074 259.538 87.0339C258.977 89.0898 266.313 81.4667 269.971 72.5054Z" fill="#59120C"/>
<path fill-rule="evenodd" clip-rule="evenodd" d="M114.336 101.279C113.417 103.04 112.13 107.482 114.336 111.158C114.948 111.924 117.001 113.042 118.471 112.306C119.23 111.927 119.287 111.748 119.503 111.076C119.614 110.729 119.767 110.252 120.08 109.55C120.121 109.457 120.185 109.311 120.27 109.115C121.049 107.331 123.621 101.435 127.17 94.6052C132.121 94.7653 136.33 95.5264 135.462 97.6025C134.611 100.315 134.02 102.265 133.865 102.887C133.405 104.725 132.716 110.928 139.149 111.617C139.652 111.729 139.788 111.311 140.27 109.829C140.449 109.278 140.676 108.582 140.987 107.711L154.542 68.654C155.461 66.8577 153.164 63.5994 148.569 62.3984C148.569 61.7614 143.766 57.8661 141.906 60.8425C137.138 66.1993 128.339 77.0117 121.531 87.8073C119.964 87.8289 118.523 87.9427 117.323 88.1827C116.404 88.3665 114.336 89.0558 116.174 92.548C116.792 93.7233 117.168 94.4574 117.38 94.8898L117.323 94.9987C116.168 97.1604 115.155 99.2695 114.336 101.279ZM138.027 89.5612C140.226 82.7584 142.834 74.8996 144.663 69.8027C139.777 73.6136 134.767 80.9984 130.551 88.3869C133.516 88.745 136.228 89.2022 138.027 89.5612Z" fill="#59120C"/>
</svg>
