<svg width="150" height="150" viewBox="0 0 150 150" fill="none" xmlns="http://www.w3.org/2000/svg">
<g clip-path="url(#clip0_1_8)">
<path d="M32.9062 65.4844C30.9062 65.4844 29.9062 64.5312 29.9062 62.625C29.9062 61.75 30.3594 60.1719 31.2656 57.8906C32.1719 55.5781 32.9531 53.7812 33.6094 52.5C35.1094 49.5 36.6406 47.4219 38.2031 46.2656C40.7031 44.4219 50.4688 42.75 67.5 41.25C74.9062 40.625 80.2969 40.3125 83.6719 40.3125C87.0469 40.3125 89.4375 40.3594 90.8438 40.4531C92.2812 40.5469 93.7656 40.7188 95.2969 40.9688C96.8281 41.1875 98.3594 41.4844 99.8906 41.8594C101.422 42.2031 102.875 42.6406 104.25 43.1719C107.219 44.3281 109.297 45.7656 110.484 47.4844C114.203 52.8906 116.062 57.2969 116.062 60.7031C116.062 64.5156 113.156 68.25 107.344 71.9062C105.594 73.0312 103.719 74.1562 101.719 75.2812C94.4375 79.2188 90.1719 81.5469 88.9219 82.2656C91.5469 87.3594 96.6875 92.625 104.344 98.0625C105.25 98.6875 105.969 99.1562 106.5 99.4688C108.844 100.844 111.609 100.625 114.797 98.8125C115.672 98.2812 116.562 98.0156 117.469 98.0156C118.375 98.0156 119.172 98.3594 119.859 99.0469C120.547 99.7031 120.891 100.438 120.891 101.25C120.891 104.969 118.406 108.969 113.438 113.25C109.75 116.438 106.422 118.031 103.453 118.031C101.047 118.031 95.8125 114.5 87.75 107.438C83.1875 103.438 79.4844 99.8594 76.6406 96.7031C73.7969 93.5469 71.8438 91.2031 70.7812 89.6719C69.7188 88.1094 69.1875 86.7656 69.1875 85.6406C69.1875 84.5156 69.4531 83.5156 69.9844 82.6406C70.5469 81.7656 71.2969 80.9219 72.2344 80.1094C73.7031 78.8594 75.7969 77.5312 78.5156 76.125C81.2344 74.6875 83.4531 73.3281 85.1719 72.0469C86.8906 70.7656 88.375 69.4375 89.625 68.0625C92.375 65.1562 93.75 62.5312 93.75 60.1875C93.75 58.6562 93.2812 57.375 92.3438 56.3438C90.625 54.5 89.0312 53.5781 87.5625 53.5781C85.0312 53.5781 81.9375 53.75 78.2812 54.0938L72.5625 64.2188C65.2812 77.4375 60.3125 89.3438 57.6562 99.9375C56.5938 104.062 52.5781 106.125 45.6094 106.125C39.8594 106.125 36.1875 104.781 34.5938 102.094C34.0625 101.188 33.8594 100.312 33.9844 99.4688C34.1406 98.5938 34.5625 97.4688 35.25 96.0938C35.9375 94.6875 36.875 92.9375 38.0625 90.8438L42.2344 83.7188L47.3438 75.3281L53.1094 66.2812L59.1094 57.2812C48.2031 59.625 40.25 62.1562 35.25 64.875C34.5 65.2812 33.7188 65.4844 32.9062 65.4844Z" fill="#00A3FF"/>
</g>
<defs>
<clipPath id="clip0_1_8">
<rect width="150" height="150" fill="white"/>
</clipPath>
</defs>
</svg>
